# xmcd CD database file
#
# Track frame offsets:
#	150
#	20325
#	38000
#	53895
#	70785
#	90550
#	110260
#	131785
#	154695
#	174675
#	192773
#	208643
#	232673
#	248288
#	268198
#	280600
#
# Disc length: 3924 seconds
#
# Revision: 0
# Processed by: cddbd v1.5.1PL2 Copyright (c) Steve Scherf et al.
# Submitted via: CDex 1.51
#
DISCID=cb0f5210
DTITLE=松山千春 - NORTH WIND 〜松山千春作品集〜
DYEAR=2001
DGENRE=New Age
TTITLE0=君を忘れない
TTITLE1=燃える涙
TTITLE2=時のいたずら
TTITLE3=季節の中で
TTITLE4=ふるさと
TTITLE5=春夏秋冬
TTITLE6=純〜愛する者たちへ〜
TTITLE7=生命
TTITLE8=恋
TTITLE9=かざぐるま
TTITLE10=銀の雨
TTITLE11=窓
TTITLE12=もう一度
TTITLE13=凡庸
TTITLE14=人生の空から
TTITLE15=大空と大地の中で
EXTD=YEAR: 2001
EXTT0=
EXTT1=
EXTT2=
EXTT3=
EXTT4=
EXTT5=
EXTT6=
EXTT7=
EXTT8=
EXTT9=
EXTT10=
EXTT11=
EXTT12=
EXTT13=
EXTT14=
EXTT15=
PLAYORDER=
